<svg width="303" height="152" viewBox="0 0 303 152" fill="none" xmlns="http://www.w3.org/2000/svg">
<path d="M17.7927 142.19C25.2146 144.4 38.202 142.484 48.3735 138.851L45.455 125.038L59.9526 139.953C69.1383 135.503 79.0674 130.886 84.3973 120.623C91.4076 131.572 106.569 138.672 119.686 138.115C133.711 137.52 145.738 130.821 155.697 116.284C159.768 134.158 170.794 143.514 187.451 139.911C191.597 138.865 195.684 136.794 198.167 134.991L198.902 139.402C207.794 140.004 216.681 139.621 225.552 136.094L226.104 121.758C235.691 136 255.103 141.305 269.179 137.035C281.558 132.673 289.283 126.363 292.454 114.957C289.096 109.582 282.81 107.136 276.397 104.817C279.629 104.388 282.406 104.34 287.016 102.764C291.048 97.5243 293.636 90.097 291.902 80.4037C287.716 61.5093 276.85 55.6929 262.733 57.3084C245.8 59.1551 237.04 67.2641 227.758 81.5064C226.887 67.2542 228.753 53.7347 229.412 40.1524C217.384 39.5381 205.394 38.6908 192.653 42.3579C192.607 37.0228 193.13 31.4981 194.123 25.8164C204.601 4.51765 170.562 9.11154 181.565 24.3395C175.978 29.0603 179.288 26.1029 174.642 23.0424C171.017 22.8124 167.329 22.4217 164.716 23.0588L162.694 25.6319L160.856 21.9561C158.182 20.113 155.38 19.2242 152.218 21.0371L149.645 23.886C141.674 20.6475 136.718 17.4558 129.243 20.8532C127.641 18.6703 125.501 18.5391 122.994 17.9125L123.913 11.4798C121.327 5.95304 115.41 5.87397 113.069 7.80382C109.841 10.3096 109.383 14.1547 107.923 17.545L99.6523 19.7505C93.8647 16.543 89.1621 18.3266 84.5811 20.6694C77.29 -3.56915 45.1333 8.63001 46.995 13.869C48.0284 19.516 49.7733 21.3211 53.7035 25.0805L53.4278 30.5026C49.0868 33.2105 48.8469 36.1417 50.9466 39.968C40.069 36.4711 28.5446 35.0055 17.1283 35.0055C13.1348 71.1058 14.2841 111.45 17.7927 142.19Z" fill="white"/>
<path d="M40.8232 111.611C40.9017 116.158 41.0584 120.195 41.2934 123.723C41.6069 127.251 42.038 130.661 42.5868 133.954C39.843 134.973 36.9425 135.678 33.8851 136.07C30.8277 136.541 27.0256 136.776 22.4787 136.776C21.4596 132.229 20.6757 126.389 20.1269 119.255C19.5782 112.043 19.3039 104.086 19.3039 95.3838C19.3039 86.2901 19.5782 76.334 20.1269 65.5156C20.6757 54.6188 21.3813 46.8575 22.2436 42.2322C25.693 42.2322 30.2005 42.7029 35.7665 43.6436C41.3325 44.5844 45.3698 45.6032 47.8784 46.7007C46.7809 50.542 45.6442 56.4219 44.4682 64.3397C43.2923 72.1791 42.3909 80.1362 41.7638 88.2108C43.9589 85.859 46.2323 83.2327 48.5841 80.3322C50.936 77.4316 55.522 71.4343 62.3423 62.3405C65.2429 63.6732 68.1826 65.7113 71.1616 68.4551C74.1406 71.1989 76.4141 73.9035 77.9819 76.5689C74.9246 80.4102 71.3575 84.1732 67.281 87.8578C63.2045 91.4639 58.4225 95.2269 52.9349 99.1466C55.9139 102.126 59.3634 105.144 63.2831 108.201C67.2029 111.259 72.5335 114.982 79.2754 119.373C75.5124 123.919 72.2199 127.251 69.3977 129.368C66.6539 131.406 63.7143 132.896 60.5785 133.836C56.9724 130.622 53.523 127.172 50.2304 123.488C46.9379 119.803 43.802 115.845 40.823 111.611H40.8232Z" fill="#008080"/>
<path d="M221.113 132.778C218.84 133.405 215.939 133.954 212.411 134.424C208.962 134.895 205.826 135.13 203.004 135.13C202.69 133.562 202.338 131.72 201.946 129.603C201.554 127.486 201.162 124.938 200.77 121.959C199.045 125.957 196.85 128.897 194.184 130.779C191.597 132.739 188.422 133.718 184.66 133.718C177.761 133.718 172.43 131.171 168.667 126.075C164.904 120.98 163.023 113.885 163.023 104.791C163.023 93.267 165.884 84.0949 171.607 77.2746C177.408 70.3758 185.208 66.9265 195.008 66.9265C195.399 66.9265 195.713 66.9265 195.948 66.9265C196.262 66.9265 196.536 66.9656 196.771 67.0441C196.693 63.5947 196.615 60.2633 196.536 57.0491C196.458 53.7565 196.418 50.66 196.418 47.7594C198.221 46.8187 200.769 46.0739 204.062 45.5252C207.354 44.9764 210.725 44.7019 214.175 44.7019C215.743 44.7019 217.271 44.7805 218.761 44.9374C220.25 45.0944 221.74 45.3297 223.229 45.6432C222.445 51.1308 221.818 59.9892 221.348 72.2188C220.956 84.4483 220.76 99.8917 220.76 118.55C220.76 120.745 220.76 122.94 220.76 125.135C220.838 127.252 220.956 129.799 221.112 132.778L221.113 132.778ZM185.953 101.969C185.953 106.986 186.463 110.827 187.482 113.492C188.501 116.079 189.99 117.373 191.95 117.373C193.361 117.373 194.655 116.197 195.831 113.846C197.085 111.494 198.065 108.162 198.771 103.85C198.379 98.4409 198.065 93.894 197.83 90.2095C197.595 86.4466 197.399 82.9581 197.242 79.7439H196.419C193.205 79.7439 190.657 81.7037 188.775 85.6234C186.894 89.4648 185.953 94.9131 185.953 101.969V101.969Z" fill="#008080"/>
<path d="M256.164 89.5041C257.105 89.7391 258.006 89.9349 258.869 90.0918C259.809 90.1703 260.593 90.2094 261.221 90.2094C261.848 90.2094 262.553 90.2094 263.337 90.2094C264.2 90.1309 264.788 90.0528 265.101 89.9743C265.572 88.0928 265.924 86.3288 266.159 84.6825C266.473 83.0362 266.63 81.5467 266.63 80.214C266.63 78.5677 266.394 77.3527 265.924 76.5687C265.532 75.7848 264.905 75.3928 264.043 75.3928C262.475 75.3928 260.985 76.6862 259.574 79.2732C258.163 81.7817 257.026 85.1919 256.164 89.5037L256.164 89.5041ZM270.393 107.613C273.372 108.162 276.39 109.259 279.447 110.905C282.583 112.473 285.131 114.277 287.091 116.315C286.464 118.353 285.013 120.548 282.74 122.9C280.466 125.252 277.762 127.212 274.626 128.78C272.117 130.034 269.374 130.974 266.395 131.602C263.494 132.307 260.437 132.66 257.222 132.66C249.069 132.66 242.68 130.308 238.055 125.604C233.508 120.822 231.235 114.355 231.235 106.202C231.235 101.106 232.019 96.1282 233.587 91.2677C235.233 86.3289 237.545 81.8603 240.524 77.8622C243.895 73.3937 247.776 69.9052 252.166 67.3966C256.556 64.888 261.064 63.6338 265.689 63.6338C272.274 63.6338 277.527 65.3191 281.446 68.69C285.366 71.9826 287.326 76.4121 287.326 81.9781C287.326 84.4867 287.052 87.2696 286.503 90.3269C286.032 93.3059 285.405 95.893 284.621 98.0881C282.191 99.264 279.173 100.165 275.567 100.793C272.039 101.341 267.806 101.616 262.867 101.616C261.456 101.616 260.045 101.537 258.634 101.38C257.301 101.223 255.968 101.027 254.636 100.793C254.557 101.263 254.518 101.812 254.518 102.439C254.518 102.987 254.518 103.85 254.518 105.026C254.518 109.729 255.106 113.336 256.282 115.844C257.536 118.353 259.3 119.607 261.573 119.607C263.063 119.607 264.67 118.392 266.395 115.962C268.119 113.531 269.452 110.749 270.393 107.613V107.613Z" fill="#008080"/>
<path d="M118.256 58.3953C97.8181 58.3953 81.3661 74.8495 81.3661 95.287C81.3661 115.724 97.8181 132.177 118.256 132.177C138.693 132.177 155.147 115.724 155.147 95.287C155.147 74.8495 138.693 58.3953 118.256 58.3953ZM127.035 76.1926L140.739 106.119L95.7708 85.3625L127.035 76.1926ZM107.182 92.3984L130.562 103.48L113.577 113.867L110.556 105.208L107.56 105.746L107.342 98.0877L107.182 92.3984Z" fill="#008080"/>
<path d="M70.837 17.4049C69.7938 16.803 67.7674 16.5018 64.7581 16.5018L65.1194 20.2335C65.4406 22.4003 65.7214 26.4529 65.9619 32.3913C66.3229 32.3109 66.5639 32.2103 66.6845 32.0902C67.0057 31.8494 67.3467 31.7291 67.7076 31.7291C68.2292 31.6084 68.7307 31.2475 69.2122 30.6459C70.4159 29.6428 71.3388 28.8001 71.9807 28.118L73.967 25.8309C74.0872 25.7922 74.2877 25.3508 74.5688 24.5069C74.8498 23.6241 75.0302 22.9018 75.1101 22.34C75.1101 21.1764 74.9899 20.5143 74.7491 20.3537C74.7491 20.2733 74.5081 19.7718 74.0265 18.8492C73.8661 18.7285 73.3846 18.4277 72.582 17.9465L70.837 17.4049ZM58.3785 10.4834L61.7489 10.0022L66.0824 9.70142L68.3694 10.0022C68.5298 10.1625 68.9109 10.2627 69.5129 10.3029C70.6765 10.2641 72.2413 10.9263 74.2075 12.2892C74.6891 12.4496 75.0904 12.7306 75.4113 13.132L77.6984 15.9003C77.7788 15.9807 77.8991 16.2016 78.0594 16.5626C78.2198 16.8838 78.4407 17.2649 78.7217 17.7061C78.6412 17.7061 78.7012 17.8666 78.9018 18.1873C79.4234 19.0701 79.6641 19.5914 79.6241 19.7518C79.8247 19.9122 80.0252 20.4338 80.2258 21.3167C80.4264 22.1995 80.4866 22.8015 80.4061 23.1225C80.4449 23.1613 80.4047 23.6228 80.2855 24.5069C80.0045 26.4329 79.503 27.8574 78.7809 28.7802L77.9984 30.2245L76.6744 32.1505L75.8919 32.8731C74.4474 34.478 72.6819 35.7216 70.5955 36.6044C70.515 36.6431 70.3946 36.6833 70.2342 36.725L68.7897 37.2063L66.4426 37.8078C66.4426 38.9714 66.5829 41.6601 66.8639 45.8732C67.0243 47.3177 67.1448 48.12 67.2252 48.2805C67.2252 49.6046 67.145 50.4872 66.9846 50.9286C66.8242 51.4102 66.5634 51.7513 66.2021 51.9519C65.8412 52.1927 65.2194 52.3331 64.3365 52.3733C64.0957 52.4537 63.6743 52.3736 63.0725 52.1329C62.4706 51.9323 61.9892 51.6113 61.628 51.1699L61.2668 49.2439C61.3472 49.1635 61.2269 48.7823 60.9057 48.1004C60.6247 47.7791 60.404 47.2175 60.2437 46.4152L59.8221 40.6972L59.7639 38.7712C57.4367 38.9316 56.0324 38.2896 55.5509 36.8452C55.1498 36.0829 55.0695 35.5814 55.3103 35.3406L55.6112 34.5582C56.0928 33.7958 57.0157 33.4147 58.3798 33.4147H59.6437C59.5633 33.3342 59.5231 33.0537 59.5231 32.5723L59.2824 30.0444V28.9608L59.2243 28.1783C59.2631 27.8174 59.2438 27.4164 59.1662 26.9749V26.6134L59.0456 25.1088V23.9653L58.9875 23.3638C58.9875 20.515 58.8268 18.7093 58.5055 17.9469C57.1814 18.7093 56.2986 19.1304 55.8572 19.2107C55.4158 19.2494 54.6737 18.9486 53.6305 18.308C53.1891 17.947 52.9483 17.5457 52.9081 17.1042C52.1859 16.101 51.9449 15.2786 52.1856 14.6366C52.266 14.3154 52.587 13.8139 53.1485 13.132C53.1873 12.9716 53.6688 12.6102 54.593 12.0483C55.3153 11.3261 56.5793 10.8045 58.3849 10.4834H58.3785Z" fill="#008080"/>
<path d="M95.2609 30.5857C95.4213 29.9838 95.4019 29.2215 95.2028 28.2986C94.9218 28.0578 94.5406 27.9375 94.0593 27.9375C93.4574 27.9375 92.9158 28.4992 92.4343 29.6227C91.7923 30.5857 91.3108 31.6488 90.9898 32.8124H90.9317C90.4903 34.4976 90.2696 35.4004 90.2696 35.5208C90.9117 35.6812 91.4331 35.7617 91.8343 35.7617C92.2355 35.7229 92.697 35.502 93.2187 35.0994C94.1416 34.2167 94.8238 32.7123 95.2651 30.5857H95.2609ZM95.0806 39.2526L92.8539 39.4335C91.61 39.4335 90.6269 39.3133 89.9046 39.0725L90.0856 40.216C90.2057 43.5463 91.1285 45.7332 92.8541 46.7764C93.3357 46.977 93.7371 47.0771 94.058 47.0771C94.3792 47.0771 94.8005 46.9166 95.3219 46.5959C95.4823 46.4355 95.6227 46.2151 95.7433 45.9341C95.7821 45.5731 95.9826 45.4122 96.345 45.4519C97.9901 43.3655 99.2339 42.543 100.077 42.9843C100.919 43.5461 101.34 43.9874 101.34 44.3084C101.34 44.4687 101.24 44.6494 101.04 44.85V45.211C101.04 45.6122 100.779 46.3346 100.257 47.3779C99.7757 48.4211 99.254 49.3038 98.6924 50.026C98.4114 50.6279 98.0502 51.0494 97.609 51.2902C96.325 52.0926 94.9608 52.4137 93.5164 52.2532C93.1951 52.2144 92.9745 52.1339 92.8543 52.0123C92.5331 51.9319 92.2923 51.9125 92.132 51.9542L91.65 51.8961C91.2891 51.8961 90.9883 51.816 90.7474 51.6557C90.3462 51.4149 90.0652 51.2946 89.9046 51.2946C88.8614 50.8934 88.2194 50.5922 87.9786 50.3915C87.778 50.1909 87.5976 50.0505 87.4372 49.9701C87.2769 49.8897 86.8957 49.4685 86.2937 48.7064C85.7721 48.265 85.4711 47.984 85.3908 47.8636C85.15 47.5026 84.9294 47.2418 84.7288 47.0811C84.5684 46.9208 84.4683 46.5598 84.4281 45.9979C84.2677 45.7974 84.1874 45.5365 84.1874 45.2155L83.9468 44.7333C83.9468 44.4523 83.8265 44.2319 83.5857 44.0715C83.3449 43.8307 83.2244 43.5295 83.2244 43.1684V42.6867C83.0641 42.6063 83.0238 42.3657 83.1038 41.9646V40.3996L83.0457 39.858V39.4367C83.0069 39.2763 83.0471 38.9351 83.1663 38.4133L83.1082 37.8717C83.147 37.833 83.2073 37.512 83.2892 36.9087C83.4496 36.0662 83.63 35.5449 83.8306 35.3443V34.8027C83.8693 34.682 83.8887 34.5215 83.8887 34.321C83.8887 34.1204 83.9289 33.8995 84.0093 33.6587C84.1295 33.4179 84.4505 32.5151 84.9723 30.9503L85.9353 28.8438C86.2163 28.2419 86.6576 27.5797 87.2594 26.8575C87.2981 26.6569 87.4588 26.2959 87.7413 25.7743L88.5238 25.0521C88.7645 24.6912 89.1257 24.4303 89.6072 24.2697C90.1689 23.9887 90.59 23.8478 90.8709 23.8478L92.5562 23.6074C92.7568 23.6462 92.8974 23.6655 92.9779 23.6655H93.7601C94.6428 23.746 95.3652 23.9266 95.9269 24.2071C97.1307 24.5681 98.0133 25.0296 98.575 25.5915C99.8189 26.9959 100.441 28.34 100.441 29.624C100.441 30.908 100.24 32.0111 99.8392 32.9339C98.8361 35.221 98.1138 36.6658 97.6724 37.2676C96.9501 38.5917 96.0875 39.2539 95.0844 39.2539L95.0806 39.2526Z" fill="#008080"/>
<path d="M110.179 28.5993L110.237 28.0582C109.394 27.9778 108.793 27.9174 108.431 27.8772C108.111 27.7968 107.569 27.7167 106.806 27.6368C106.044 27.5564 105.442 27.4357 105.001 27.2753C104.158 26.9943 103.677 26.2724 103.556 25.1089C103.436 23.9052 103.817 23.1626 104.7 22.8817C105.502 22.6811 106.064 22.581 106.385 22.581C106.706 22.581 107.308 22.5408 108.191 22.4603C108.632 22.2195 109.234 22.0792 109.996 22.0389L110.899 21.7981C110.899 21.8368 111.059 21.7966 111.38 21.6774L111.681 20.4137C111.681 19.7717 111.861 19.1297 112.222 18.4877C112.222 18.2067 112.483 17.4242 113.005 16.1404C113.005 15.98 113.366 14.8163 114.088 12.6495C114.249 12.4489 114.85 11.9874 115.894 11.2651C116.536 10.9439 117.439 11.1647 118.602 11.9273C119.244 12.2083 119.686 12.5895 119.926 13.0709C119.686 13.3116 119.565 13.8733 119.565 14.756C119.526 15.037 119.245 16.5216 118.722 19.2099V20.895C119.043 20.9337 119.565 21.0343 120.287 21.1962C121.05 21.3565 121.953 21.5367 122.996 21.7373C125.002 22.1385 126.266 22.9412 126.787 24.145C126.988 25.0277 126.948 25.6495 126.667 26.0107C126.386 26.3716 125.704 26.6325 124.62 26.7931C123.738 26.8319 122.574 26.8512 121.13 26.8512C119.725 26.8512 118.682 26.9514 118 27.152C117.919 27.8742 117.879 28.4363 117.879 28.8375L117.821 29.7402C117.821 30.0212 117.641 31.5059 117.28 34.1941C117.039 34.555 116.838 36.4209 116.678 39.7915V44.1851C116.678 44.9073 116.738 45.5892 116.859 46.2312C116.898 47.1139 116.998 47.7362 117.16 48.0973C117.16 48.4583 117.26 49.2206 117.461 50.3844C116.979 51.548 116.177 52.1298 115.053 52.1298C113.97 52.1298 113.007 51.7285 112.164 50.926L111.502 49.963C111.382 49.6423 111.281 49.4214 111.201 49.3007C111.163 49.1806 111.122 49.0402 111.081 48.8794C110.8 48.0769 110.579 47.5754 110.419 47.3748C110.178 47.0535 110.058 46.8126 110.058 46.6522C110.058 46.4918 110.058 46.2915 110.058 46.0507C109.977 45.3686 109.877 44.7868 109.757 44.3053C109.556 44.1047 109.456 43.4223 109.456 42.2586C109.536 40.1321 109.536 38.9082 109.456 38.5872C109.576 38.467 109.595 37.7047 109.514 36.3002L109.694 34.9761C109.694 34.8157 109.774 34.2141 109.935 33.1708C109.854 33.0104 109.835 32.5889 109.877 31.9066C109.915 31.1844 109.975 30.6829 110.057 30.402C110.137 29.9204 110.177 29.3184 110.177 28.5962L110.179 28.5993Z" fill="#008080"/>
<path d="M139.647 34.137C139.685 34.0164 139.766 33.3142 139.887 32.0305C139.807 31.9104 139.706 31.4686 139.586 30.706C139.265 30.064 138.844 29.5827 138.322 29.2618C137.68 28.9808 137.299 28.8404 137.179 28.8404C136.818 28.9605 136.557 29.1009 136.396 29.2618C136.276 29.3824 135.935 29.944 135.373 30.9469C134.852 31.95 134.41 33.6151 134.049 35.9424C133.728 38.2696 133.567 39.955 133.567 40.9982C133.567 42.0414 133.607 43.3254 133.688 44.8501C133.768 46.3347 134.089 47.0369 134.651 46.9566C135.173 46.8762 135.895 45.4315 136.818 42.623C136.857 42.4224 136.997 42.0614 137.239 41.5398L139.647 34.137ZM146.689 31.6695C146.689 33.7961 146.909 35.7418 147.351 37.5073C147.551 39.2728 147.912 41.1588 148.434 43.165C148.554 43.9675 148.594 44.3684 148.555 44.3684C149.558 46.5753 150.119 47.8997 150.24 48.341C150.36 48.7422 150.341 49.0829 150.182 49.3639V49.3058C150.061 49.6667 149.68 49.9877 149.038 50.2688C148.436 50.5895 147.895 50.7903 147.413 50.8707C145.888 51.3523 144.986 50.7705 144.705 49.1253C144.544 49.0046 144.304 48.7636 143.982 48.4027C143.701 48.0015 143.541 47.6805 143.501 47.4397C143.462 47.1587 143.322 46.8983 143.08 46.6577C142.999 46.4571 142.819 46.1963 142.538 45.8752C142.257 45.554 142.097 45.233 142.057 44.9122L141.876 43.287L141.756 43.2289C141.114 44.553 140.692 45.476 140.492 45.9977C140.01 47.3619 139.167 48.9265 137.964 50.6919C136.599 52.2167 134.934 52.658 132.968 52.016C132.246 51.9772 131.664 51.7568 131.223 51.3542C130.822 50.953 130.541 50.7322 130.38 50.6919C130.139 50.6115 129.798 50.3107 129.357 49.7893C128.635 48.8263 128.194 47.4017 128.033 45.5159V43.951C128.154 43.7504 128.154 42.7874 128.033 41.062V40.701C127.792 39.4973 127.672 38.7749 127.672 38.5341C127.672 38.2934 127.712 37.9724 127.792 37.5712C127.873 37.17 127.892 36.9295 127.851 36.849C127.812 36.7289 127.792 36.5482 127.792 36.3074V35.4048L128.093 32.1543C128.535 30.7499 129.016 29.4861 129.538 28.3626C129.698 27.6805 129.999 27.1391 130.441 26.7379C131.444 25.6545 131.985 25.0322 132.066 24.8718C132.347 24.2699 133.39 23.7886 135.195 23.4275L136.218 23.4856C136.62 23.4856 136.981 23.5455 137.302 23.6657C137.623 23.7461 137.844 23.7863 137.964 23.7863C138.526 24.0673 138.987 24.2082 139.348 24.2082C139.709 24.2082 140.311 24.4888 141.154 25.0505C141.395 25.0893 141.996 25.4305 142.959 26.0738C144.003 26.756 144.604 27.1371 144.765 27.2174L146.33 27.7585C146.771 28.1195 146.992 28.3202 146.992 28.3604C146.992 28.3992 146.892 29.5027 146.691 31.6708L146.689 31.6695Z" fill="#008080"/>
<path d="M154.767 43.8869C154.767 43.7265 154.807 43.1245 154.887 42.0811C154.566 41.5996 154.405 40.5162 154.405 38.8311C154.367 34.5378 154.347 32.351 154.347 32.2707C154.386 32.1903 154.346 32.0499 154.227 31.8493C154.106 31.6085 154.046 31.3675 154.046 31.1267V30.4649C153.885 29.1409 153.965 28.1379 154.286 27.4558C154.367 27.0546 154.587 26.7534 154.948 26.5527C155.229 26.1515 155.631 25.9512 156.152 25.9512C156.674 25.9512 157.115 26.0111 157.476 26.1313C157.757 26.0111 158.018 26.1716 158.259 26.613C158.74 26.8136 159.001 26.9137 159.041 26.9137L159.342 27.1546C159.663 27.1546 159.864 27.2149 159.944 27.3356C160.064 27.416 160.144 27.6565 160.184 28.0577L160.725 33.294V34.3173C160.806 34.7989 160.846 35.1801 160.846 35.4609L160.904 38.2895L161.145 38.3476C161.386 37.3846 161.646 36.5823 161.927 35.9404C162.248 35.2582 162.449 34.7563 162.529 34.4353C162.568 34.1141 162.708 33.8133 162.951 33.5327C163.191 33.0511 163.312 32.7099 163.312 32.5094C163.312 32.3088 163.472 32.0479 163.794 31.7269C164.155 30.8441 164.496 30.2026 164.817 29.8014L164.997 29.3192C165.157 29.0784 165.278 28.8781 165.358 28.7177C165.799 28.3568 166.121 28.0358 166.321 27.7547L166.803 27.3932C166.883 27.3932 166.964 27.2931 167.044 27.0925C167.124 26.8517 167.646 26.7113 168.608 26.6711C169.371 26.5504 170.013 26.5504 170.534 26.6711C170.895 26.6711 171.116 26.6904 171.197 26.7292L171.558 27.0903L172.04 27.2109C172.722 27.5719 173.163 28.4347 173.364 29.7991C173.364 32.5276 173.464 34.3333 173.664 35.216C173.945 37.5031 174.407 39.5494 175.049 41.355C175.731 43.1606 176.393 44.3643 177.035 44.9661C177.877 46.0495 178.038 47.193 177.516 48.3967C177.155 48.9985 176.694 49.3196 176.132 49.3597C175.57 49.3984 175.169 49.3791 174.928 49.3016C174.607 49.3016 174.346 49.2416 174.146 49.1215C173.704 49.2416 173.323 49.141 173.002 48.8203C172.641 48.8203 172.36 48.6401 172.159 48.2791C170.755 46.4335 169.932 45.2899 169.692 44.8486C169.491 44.4072 169.331 44.106 169.211 43.9455C169.13 43.7851 169.07 43.6447 169.03 43.5241C168.991 43.4039 168.931 43.2233 168.849 42.9825C168.769 42.6215 168.608 42.3005 168.368 42.0195C168.167 41.6983 168.067 41.4577 168.067 41.2974C167.946 41.0968 167.866 40.7758 167.826 40.3344C167.585 40.174 167.465 39.9732 167.465 39.7324C167.264 39.6123 167.124 39.2513 167.043 38.6492L166.803 37.0843L166.682 37.0262C164.676 39.554 163.532 42.4228 163.252 45.6328C163.171 46.4353 163.091 46.957 163.011 47.1977C162.811 47.5189 162.891 48.0204 163.252 48.7023V49.0638C163.252 49.2242 163.031 49.525 162.59 49.9665C162.108 50.0052 161.827 50.0246 161.747 50.0246H161.085C161.005 50.0246 160.844 50.0849 160.604 50.2056C160.363 50.2056 160.162 50.2458 160.002 50.3262C159.842 50.4066 159.621 50.3873 159.34 50.2681C158.618 50.2293 158.197 50.169 158.076 50.0871C157.956 50.0484 157.775 49.988 157.535 49.9066C157.294 49.8678 157.093 49.7476 156.933 49.5455C156.732 49.5455 156.592 49.4253 156.512 49.1845C155.468 48.1412 154.947 47.2586 154.947 46.5364V46.1145L154.888 45.6328C154.969 44.9908 154.929 44.409 154.768 43.8874L154.767 43.8869Z" fill="#008080"/>
<path d="M188.851 15.7801H189.031C190.436 15.8605 191.338 16.282 191.74 17.0443C192.181 17.7665 192.341 18.4686 192.221 19.1508C192.14 19.8329 191.599 20.6751 190.596 21.6782C189.633 22.6813 188.75 23.163 187.948 23.1229C187.707 23.1229 187.225 23.0027 186.503 22.7619C185.821 22.5211 185.46 22.3802 185.42 22.34C185.381 22.1797 185.26 22.0594 185.058 21.979C184.015 21.5778 183.433 20.5547 183.313 18.9095C183.313 18.7491 183.433 18.6288 183.674 18.5484C183.514 18.5484 183.494 18.3074 183.616 17.8258C183.897 16.9431 184.519 16.3612 185.482 16.0804C186.726 15.8396 187.849 15.7394 188.852 15.7796L188.851 15.7801ZM188.73 31.0074L187.707 41.0587C187.707 41.2995 187.707 41.54 187.707 41.7808C187.707 41.9814 187.726 42.162 187.765 42.3224C187.726 42.4828 187.707 42.6831 187.707 42.9239V47.2576C187.868 48.6218 187.868 49.4241 187.707 49.6648C187.466 49.7452 187.186 49.866 186.865 50.0263C186.544 50.2269 185.922 50.2671 184.999 50.147C184.116 50.0666 183.474 49.9257 183.073 49.7251L182.35 49.5451C181.949 49.5451 181.688 49.3644 181.568 49.0035C181.046 48.6822 180.765 48.2611 180.725 47.7397C180.605 47.5391 180.745 47.2581 181.147 46.8969C181.108 46.6964 181.028 46.4157 180.906 46.0546C180.786 45.6534 180.746 45.292 180.786 44.971C180.906 44.7704 180.846 44.4696 180.605 44.0683C180.605 43.6269 180.666 43.1255 180.786 42.5637C180.946 42.4033 180.986 41.8215 180.906 40.8183C181.187 40.4171 181.328 39.8554 181.328 39.1331C181.167 38.4911 181.228 37.8492 181.508 37.2072C181.789 36.5652 181.949 35.9232 181.989 35.2812C182.07 34.2781 182.25 33.2949 182.531 32.3319C182.531 31.9307 182.711 31.2888 183.072 30.4059C183.473 29.5232 183.734 29.0015 183.855 28.841L184.818 27.878L185.901 27.4566H185.959C186.441 27.2962 186.922 27.3156 187.404 27.5147C188.567 27.9561 189.269 28.2973 189.51 28.538C189.35 28.6984 189.249 28.9389 189.209 29.2602C189.17 29.5809 189.13 29.862 189.088 30.1029C188.928 30.3035 188.808 30.6043 188.727 31.0056L188.73 31.0074Z" fill="#008080"/>
</svg>
